ModelForces
version=1
nRows=4
nColumns=119
inDegrees=no

This file contains the forces exerted on a model during a simulation.

A force is a generalized force, meaning that it can be either a force (N) or a torque (Nm).

Units are S.I. units (second, meters, Newtons, ...)
Angles are in degrees.

endheader
time	semimem_r	semiten_r	bifemlh_r	bifemsh_r	sar_r	grac_r	rect_fem_r	vas_med_r	vas_int_r	vas_lat_r	med_gas_r	lat_gas_r	femur_lat_meniscii_l.femur_lat_l.force.X	femur_lat_meniscii_l.femur_lat_l.force.Y	femur_lat_meniscii_l.femur_lat_l.force.Z	femur_lat_meniscii_l.femur_lat_l.torque.X	femur_lat_meniscii_l.femur_lat_l.torque.Y	femur_lat_meniscii_l.femur_lat_l.torque.Z	femur_lat_meniscii_l.meniscus_lat_l.force.X	femur_lat_meniscii_l.meniscus_lat_l.force.Y	femur_lat_meniscii_l.meniscus_lat_l.force.Z	femur_lat_meniscii_l.meniscus_lat_l.torque.X	femur_lat_meniscii_l.meniscus_lat_l.torque.Y	femur_lat_meniscii_l.meniscus_lat_l.torque.Z	femur_med_meniscii_l.femur_med_l.force.X	femur_med_meniscii_l.femur_med_l.force.Y	femur_med_meniscii_l.femur_med_l.force.Z	femur_med_meniscii_l.femur_med_l.torque.X	femur_med_meniscii_l.femur_med_l.torque.Y	femur_med_meniscii_l.femur_med_l.torque.Z	femur_med_meniscii_l.meniscus_med_l.force.X	femur_med_meniscii_l.meniscus_med_l.force.Y	femur_med_meniscii_l.meniscus_med_l.force.Z	femur_med_meniscii_l.meniscus_med_l.torque.X	femur_med_meniscii_l.meniscus_med_l.torque.Y	femur_med_meniscii_l.meniscus_med_l.torque.Z	femur_lat_meniscii_r.femur_lat_r.force.X	femur_lat_meniscii_r.femur_lat_r.force.Y	femur_lat_meniscii_r.femur_lat_r.force.Z	femur_lat_meniscii_r.femur_lat_r.torque.X	femur_lat_meniscii_r.femur_lat_r.torque.Y	femur_lat_meniscii_r.femur_lat_r.torque.Z	femur_lat_meniscii_r.meniscus_lat_r.force.X	femur_lat_meniscii_r.meniscus_lat_r.force.Y	femur_lat_meniscii_r.meniscus_lat_r.force.Z	femur_lat_meniscii_r.meniscus_lat_r.torque.X	femur_lat_meniscii_r.meniscus_lat_r.torque.Y	femur_lat_meniscii_r.meniscus_lat_r.torque.Z	femur_med_meniscii_r.femur_med_r.force.X	femur_med_meniscii_r.femur_med_r.force.Y	femur_med_meniscii_r.femur_med_r.force.Z	femur_med_meniscii_r.femur_med_r.torque.X	femur_med_meniscii_r.femur_med_r.torque.Y	femur_med_meniscii_r.femur_med_r.torque.Z	femur_med_meniscii_r.meniscus_med_r.force.X	femur_med_meniscii_r.meniscus_med_r.force.Y	femur_med_meniscii_r.meniscus_med_r.force.Z	femur_med_meniscii_r.meniscus_med_r.torque.X	femur_med_meniscii_r.meniscus_med_r.torque.Y	femur_med_meniscii_r.meniscus_med_r.torque.Z	femur_med_tibia_l.tibia_upper_l.force.X	femur_med_tibia_l.tibia_upper_l.force.Y	femur_med_tibia_l.tibia_upper_l.force.Z	femur_med_tibia_l.tibia_upper_l.torque.X	femur_med_tibia_l.tibia_upper_l.torque.Y	femur_med_tibia_l.tibia_upper_l.torque.Z	femur_med_tibia_l.femur_med_l.force.X	femur_med_tibia_l.femur_med_l.force.Y	femur_med_tibia_l.femur_med_l.force.Z	femur_med_tibia_l.femur_med_l.torque.X	femur_med_tibia_l.femur_med_l.torque.Y	femur_med_tibia_l.femur_med_l.torque.Z	femur_lat_tibia_l.tibia_upper_l.force.X	femur_lat_tibia_l.tibia_upper_l.force.Y	femur_lat_tibia_l.tibia_upper_l.force.Z	femur_lat_tibia_l.tibia_upper_l.torque.X	femur_lat_tibia_l.tibia_upper_l.torque.Y	femur_lat_tibia_l.tibia_upper_l.torque.Z	femur_lat_tibia_l.femur_lat_l.force.X	femur_lat_tibia_l.femur_lat_l.force.Y	femur_lat_tibia_l.femur_lat_l.force.Z	femur_lat_tibia_l.femur_lat_l.torque.X	femur_lat_tibia_l.femur_lat_l.torque.Y	femur_lat_tibia_l.femur_lat_l.torque.Z	femur_med_tibia_r.tibia_upper_r.force.X	femur_med_tibia_r.tibia_upper_r.force.Y	femur_med_tibia_r.tibia_upper_r.force.Z	femur_med_tibia_r.tibia_upper_r.torque.X	femur_med_tibia_r.tibia_upper_r.torque.Y	femur_med_tibia_r.tibia_upper_r.torque.Z	femur_med_tibia_r.femur_med_r.force.X	femur_med_tibia_r.femur_med_r.force.Y	femur_med_tibia_r.femur_med_r.force.Z	femur_med_tibia_r.femur_med_r.torque.X	femur_med_tibia_r.femur_med_r.torque.Y	femur_med_tibia_r.femur_med_r.torque.Z	femur_lat_tibia_r.tibia_upper_r.force.X	femur_lat_tibia_r.tibia_upper_r.force.Y	femur_lat_tibia_r.tibia_upper_r.force.Z	femur_lat_tibia_r.tibia_upper_r.torque.X	femur_lat_tibia_r.tibia_upper_r.torque.Y	femur_lat_tibia_r.tibia_upper_r.torque.Z	femur_lat_tibia_r.femur_lat_r.force.X	femur_lat_tibia_r.femur_lat_r.force.Y	femur_lat_tibia_r.femur_lat_r.force.Z	femur_lat_tibia_r.femur_lat_r.torque.X	femur_lat_tibia_r.femur_lat_r.torque.Y	femur_lat_tibia_r.femur_lat_r.torque.Z	aACL_R	pACL_R	aPCL_R	pPCL_R	aMCL_R	aLCL_R	aPCL_L	pPCL_L	aMCL_L	aLCL_L
      0.20071861	      0.00000000	    238.23795300	    183.91197513	    376.82076452	    140.90965624	    119.95242527	      0.00000000	      0.00000000	      1.59160728	     38.91246031	      0.00000000	      7.84503816	      2.76307435	     50.99597937	     -9.56042239	      5.21997485	     -0.02578839	      1.48581788	     -2.76307435	    -50.99597937	      9.56042239	     -1.74637766	      0.02558040	     -0.48301696	     -3.31599387	     20.97615968	     -3.40468921	      0.94473225	     -0.02138609	     -1.00501789	      3.31599387	    -20.97615968	      3.40468921	      0.28075727	      0.00368718	     -0.29758878	   4884.69621291	   2366.05114248	   -273.87777833	     55.61638181	    114.12513886	   1958.93781427	  -4884.69621291	  -2366.05114248	    273.87777833	     60.90679006	   -128.68557779	     -6.49918840	   4088.05419590	    369.42500845	      5.16726369	      5.89882826	    -85.25878531	   1642.24775070	  -4088.05419590	   -369.42500845	     -5.16726369	     -6.32173058	     67.60840810	    -45.78609266	      0.00000000	      0.00000000	      0.00000000	      0.00000000	      0.00000000	      0.00000000	      0.00000000	      0.00000000	      0.00000000	      0.00000000	      0.00000000	      0.00000000	      0.00000000	      0.00000000	      0.00000000	      0.00000000	      0.00000000	      0.00000000	      0.00000000	      0.00000000	      0.00000000	      0.00000000	      0.00000000	      0.00000000	   -120.21200272	    -85.43253131	     40.25598764	     -1.78873105	      2.59035803	      0.18659475	    120.21200272	     85.43253131	    -40.25598764	     17.79097252	     -2.16725857	     48.49704383	    -65.10584980	    -59.42305423	    -22.68326396	      2.02345904	     -2.42211825	      0.54510930	     65.10584980	     59.42305423	     22.68326396	    -10.57909529	      1.61407342	     26.12823285	      0.00000000	      0.00000000	    963.54147484	    346.78997447	      0.00000000	      0.00000000	      0.00000000	      0.00000000	      0.00000001	      0.00000000
      0.20096060	      0.00000000	    238.16631509	    183.85724878	    376.72863716	    140.89836789	    119.92406813	      8.26370120	      0.00000000	      3.91222817	     38.66192284	      0.00000000	     10.53355385	      2.76307435	     50.99597937	     -9.56042239	      5.21997485	     -0.02578839	      1.48581788	     -2.76307435	    -50.99597937	      9.56042239	     -1.74637766	      0.02558040	     -0.48301696	     -3.31599387	     20.97615968	     -3.40468921	      0.94473225	     -0.02138609	     -1.00501789	      3.31599387	    -20.97615968	      3.40468921	      0.28075727	      0.00368718	     -0.29758878	   4960.95041232	   2305.58464850	   -289.78110959	     63.54609150	    115.75621115	   1990.34154790	  -4960.95041232	  -2305.58464850	    289.78110959	     58.90895924	   -130.28076356	     -9.51591649	   4099.61414399	    364.70085921	      3.98200803	      6.23437872	    -85.47544582	   1646.89139834	  -4099.61414399	   -364.70085921	     -3.98200803	     -6.21623953	     67.79140432	    -45.93494370	      0.00000000	      0.00000000	      0.00000000	      0.00000000	      0.00000000	      0.00000000	      0.00000000	      0.00000000	      0.00000000	      0.00000000	      0.00000000	      0.00000000	      0.00000000	      0.00000000	      0.00000000	      0.00000000	      0.00000000	      0.00000000	      0.00000000	      0.00000000	      0.00000000	      0.00000000	      0.00000000	      0.00000000	   -120.29474224	    -85.20722528	     40.35266736	     -1.78595069	      2.59541478	      0.18534634	    120.29474224	     85.20722528	    -40.35266736	     17.82607432	     -2.16989834	     48.53013495	    -64.99811135	    -59.11723469	    -22.60855973	      2.01329040	     -2.41788106	      0.54168099	     64.99811135	     59.11723469	     22.60855973	    -10.54164506	      1.61137389	     26.08564186	      0.00000000	      0.00000000	    964.56321288	    347.34778227	      0.00000000	      0.00000000	      0.00000000	      0.00000000	      0.00000001	      0.00000000
      0.20217052	      0.00000000	    237.79102871	    183.57764178	    376.22839932	    140.83694686	    119.77356087	     64.48569528	      0.00000000	     14.74022113	     33.32307618	      0.00000000	     24.33055661	      2.76307435	     50.99597937	     -9.56042239	      5.21997485	     -0.02578839	      1.48581788	     -2.76307435	    -50.99597937	      9.56042239	     -1.74637766	      0.02558040	     -0.48301696	     -3.31599387	     20.97615968	     -3.40468921	      0.94473225	     -0.02138609	     -1.00501789	      3.31599387	    -20.97615968	      3.40468921	      0.28075727	      0.00368718	     -0.29758878	   4861.80574248	   2232.30890302	   -295.32038547	     67.64779080	    112.95244660	   1950.04135726	  -4861.80574248	  -2232.30890302	    295.32038547	     56.71545133	   -126.96065111	     -8.55911193	   4151.22175460	    349.58844254	    -15.46430704	     13.78980755	    -86.62317111	   1667.46542913	  -4151.22175460	   -349.58844254	     15.46430704	     -6.27577478	     69.11358312	    -46.23101975	      0.00000000	      0.00000000	      0.00000000	      0.00000000	      0.00000000	      0.00000000	      0.00000000	      0.00000000	      0.00000000	      0.00000000	      0.00000000	      0.00000000	      0.00000000	      0.00000000	      0.00000000	      0.00000000	      0.00000000	      0.00000000	      0.00000000	      0.00000000	      0.00000000	      0.00000000	      0.00000000	      0.00000000	   -120.63843631	    -84.36936931	     40.43298908	     -1.76792075	      2.60507593	      0.19115068	    120.63843631	     84.36936931	    -40.43298908	     17.84218832	     -2.17659020	     48.66315419	    -64.11709978	    -57.76172188	    -22.07819016	      1.96353515	     -2.38218031	      0.53880476	     64.11709978	     57.76172188	     22.07819016	    -10.29377154	      1.58856239	     25.72926032	      0.00000000	      0.00000000	    969.67282427	    350.14012293	      0.00000000	      0.00000000	      0.00000000	      0.00000000	      0.00000001	      0.00000000
      0.20383985	      0.00000000	    237.24801614	    183.19228858	    375.53850094	    140.74559476	    119.55652347	     99.17659951	      8.87837760	     25.04391690	     28.62755668	      0.00000000	     14.34373170	      2.76307435	     50.99597937	     -9.56042239	      5.21997485	     -0.02578839	      1.48581788	     -2.76307435	    -50.99597937	      9.56042239	     -1.74637766	      0.02558040	     -0.48301696	     -3.31599387	     20.97615968	     -3.40468921	      0.94473225	     -0.02138609	     -1.00501789	      3.31599387	    -20.97615968	      3.40468921	      0.28075727	      0.00368718	     -0.29758878	   4897.48728977	   2141.96647298	   -267.28176609	     58.34692384	    113.72933614	   1964.17778219	  -4897.48728977	  -2141.96647298	    267.28176609	     54.82497858	   -128.60814313	     -9.73077453	   4182.88612980	    332.17850869	    -44.80135945	     25.28578136	    -87.29660111	   1679.80860423	  -4182.88612980	   -332.17850869	     44.80135945	     -6.43223871	     70.26062317	    -45.85737591	      0.00000000	      0.00000000	      0.00000000	      0.00000000	      0.00000000	      0.00000000	      0.00000000	      0.00000000	      0.00000000	      0.00000000	      0.00000000	      0.00000000	      0.00000000	      0.00000000	      0.00000000	      0.00000000	      0.00000000	      0.00000000	      0.00000000	      0.00000000	      0.00000000	      0.00000000	      0.00000000	      0.00000000	   -120.58639025	    -83.51608405	     40.76801927	     -1.75152055	      2.62147034	      0.22151173	    120.58639025	     83.51608405	    -40.76801927	     17.96151107	     -2.18137452	     48.62705532	    -62.59781543	    -55.51554034	    -21.07257971	      1.87863941	     -2.31555573	      0.52783402	     62.59781543	     55.51554034	     21.07257971	     -9.83056867	      1.54770782	     25.11690903	      0.00000000	      0.00000000	    976.71536267	    353.99491556	      0.00000000	      0.00000000	      0.00000000	      0.00000000	      0.00000001	      0.00000000
